<svg width="156" height="40" viewBox="0 0 156 40" fill="none" xmlns="http://www.w3.org/2000/svg">
<g id="lml_logo 1">
<g id="Group">
<path id="Vector" d="M15.6365 2.65642C15.3276 3.04252 11.5747 11.8147 11.5747 12.1391C11.5747 12.7723 11.7909 12.8186 15.2041 12.8186C18.5091 12.8186 18.8334 12.8649 18.8334 13.4055C18.8334 13.529 17.9994 15.5058 16.9801 17.7916C15.9608 20.0927 15.1268 22.1622 15.1268 22.4093C15.1268 22.6873 15.2349 22.9035 15.4203 23.0116C15.8064 23.2124 36.7176 23.2279 37.2427 23.0271C37.5207 22.919 38.0149 21.946 39.6519 18.2858C40.7793 15.7375 41.6905 13.529 41.6905 13.3591C41.6905 12.6487 41.8141 12.6641 31.6983 12.6641C22.4164 12.6641 22.0766 12.6487 21.9376 12.3707C21.7986 12.1391 22.1539 11.2124 23.6983 7.72206C24.7639 5.3128 25.6288 3.2433 25.6288 3.08886C25.6288 2.50198 25.4125 2.4711 20.5168 2.4711C16.9183 2.4711 15.7446 2.51743 15.6365 2.65642Z" fill="white" fill-opacity="0.7"/>
<path id="Vector_2" d="M48.8847 13.1584C48.4214 13.56 43.0315 25.5908 42.2747 27.8766C41.7805 29.4055 41.6569 31.2125 41.9813 32.3708C42.2284 33.3128 42.9697 34.224 43.8809 34.7337C45.5179 35.6758 45.5643 35.6758 58.8925 35.6758H71.016L71.3095 35.3051C71.4639 35.1044 71.8654 34.3013 72.1898 33.5291C72.6685 32.3708 72.7303 32.0928 72.5759 31.892C72.406 31.6912 71.433 31.6603 65.3326 31.6603C61.2091 31.6603 58.0739 31.5986 57.765 31.5059C57.0855 31.3206 56.5604 30.8109 56.4369 30.2549C56.2515 29.4518 56.7921 28.0464 59.989 20.8032C61.8268 16.6488 63.155 13.4364 63.1241 13.2356L63.0778 12.8959L56.1743 12.8495L49.2708 12.8186L48.8847 13.1584Z" fill="white" fill-opacity="0.7"/>
<path id="Vector_3" d="M83.1113 13.0811C82.9106 13.251 80.9492 17.4827 78.2002 23.7066C75.6828 29.4054 73.5515 34.2394 73.4743 34.4865C73.3816 34.7182 73.3662 35.0888 73.4125 35.2896L73.5206 35.6912L75.7754 35.6448L78.0457 35.5985L79.9144 31.4286C80.9337 29.1275 81.8449 27.0888 81.9376 26.8881C82.0766 26.5483 82.3237 26.7954 85.5824 30.9035C87.5747 33.4209 89.2426 35.3823 89.4897 35.4904C90.0766 35.7529 93.3044 35.7375 93.9685 35.4595C94.4318 35.2587 96.5322 33.9305 105.258 28.3089L107.899 26.5946L106.077 30.6873C105.057 32.9421 104.239 34.9807 104.239 35.2278V35.6757H110.385H116.548L116.857 35.3359C117.335 34.7954 126.663 13.6834 126.602 13.251L126.555 12.8958L122.324 12.8495C118.941 12.8186 117.922 12.8649 117.304 13.0348C116.795 13.1892 112.934 15.4904 106.509 19.4595C101.011 22.8572 96.455 25.6371 96.3932 25.6371C96.3314 25.6371 94.4781 22.8881 92.2851 19.5213C90.0766 16.1545 88.0998 13.2819 87.8836 13.1429C87.5901 12.9576 87.0341 12.8803 85.4743 12.8495C83.6982 12.8031 83.4048 12.834 83.1113 13.0811Z" fill="white" fill-opacity="0.7"/>
<path id="Vector_4" d="M130.12 13.1583C129.642 13.5753 123.727 26.8109 123.294 28.417C123.14 28.9885 123.032 30.0078 123.016 30.7491C123.016 31.9383 123.062 32.1854 123.464 32.9885C124.005 34.0232 124.808 34.7028 126.12 35.2433L127.016 35.5985L139.51 35.6448C150.151 35.6757 152.051 35.6448 152.344 35.4595C152.746 35.197 153.858 32.6178 153.781 32.1082L153.734 31.7375L146.321 31.6603C138.213 31.5831 138.198 31.5676 137.781 30.6564C137.333 29.6834 137.518 29.1738 141.24 20.7259C142.985 16.7877 144.391 13.4055 144.36 13.2356L144.313 12.8958L137.41 12.8495L130.506 12.8186L130.12 13.1583Z" fill="white" fill-opacity="0.7"/>
<path id="Vector_5" d="M5.7359 15.1661C5.65868 15.2742 4.70115 17.3746 3.62007 19.8302C2.24555 23.0117 1.68957 24.448 1.72045 24.7723L1.76679 25.2511L5.16447 25.3283C7.03319 25.3746 8.65482 25.4673 8.76292 25.5291C8.85559 25.6063 8.94825 25.7607 8.94825 25.8843C8.94825 25.9924 8.08339 28.0464 7.01775 30.4403C5.95211 32.8341 5.08725 34.8727 5.08725 34.9962C5.08725 35.1044 5.19536 35.3051 5.33435 35.4287C5.55057 35.6449 6.77065 35.6758 16.5004 35.6758C25.0718 35.6758 27.4811 35.6294 27.5892 35.475C27.8517 35.1507 31.8054 26.1932 31.8054 25.9461C31.7899 25.2356 32.1143 25.2511 21.8286 25.1739C13.4425 25.1121 12.1297 25.0657 12.0062 24.865C11.8981 24.6951 12.3923 23.4132 13.8131 20.17C15.5274 16.2935 15.7591 15.6758 15.6046 15.3515L15.4347 14.9808H10.6625C7.03319 14.9808 5.85945 15.0271 5.7359 15.1661Z" fill="white" fill-opacity="0.7"/>
</g>
</g>
</svg>
