<svg width="129" height="40" viewBox="0 0 129 40" fill="none" xmlns="http://www.w3.org/2000/svg">
<g id="logo 1" clip-path="url(#clip0_375_5366)">
<g id="header">
<g id="Header-3">
<g id="Logo">
<g id="Group">
<g id="Group_2">
<g id="Group-14">
<path id="Fill-1" fill-rule="evenodd" clip-rule="evenodd" d="M72.9338 13.4897C72.5727 12.9577 72.1585 12.5016 71.6925 12.1219C71.2265 11.7421 70.7348 11.4276 70.2187 11.1789C69.7022 10.9297 69.1821 10.7448 68.6606 10.6267C68.1383 10.5071 67.6452 10.4419 67.1778 10.4308H67.1445H57.1821C56.36 10.4308 55.7191 10.1844 55.2585 9.69151C54.7974 9.19863 54.5667 8.52829 54.5667 7.67863C54.5667 6.84001 54.7974 6.16599 55.2585 5.65564C55.7191 5.14622 56.36 4.89105 57.1821 4.89105H71.9255V0.472656H57.1821C56.4835 0.472656 55.7281 0.600013 54.9169 0.855185C54.106 1.11036 53.3543 1.52415 52.6602 2.0961C51.9652 2.66806 51.3883 3.40967 50.9272 4.32139C50.4661 5.23404 50.2358 6.3522 50.2358 7.67863C50.2358 9.00369 50.4661 10.1251 50.9272 11.0428C51.3883 11.9609 51.9652 12.7025 52.6602 13.2694C53.3543 13.8354 54.106 14.2464 54.9169 14.5007C55.7281 14.7559 56.4835 14.8842 57.1821 14.8842H67.1445C67.5438 14.8842 67.9075 14.9517 68.2356 15.0878C68.5633 15.2235 68.8405 15.4156 69.0685 15.6648C69.2966 15.915 69.4714 16.2092 69.5936 16.5485C69.7157 16.8883 69.7775 17.263 69.7775 17.6704C69.7775 18.509 69.5454 19.1775 69.0856 19.6754C68.625 20.1747 67.9778 20.4235 67.1445 20.4235L50.5766 20.4409V24.8589L67.1445 24.8419C67.6118 24.8419 68.1085 24.7853 68.6358 24.6722C69.1636 24.5591 69.6824 24.383 70.1939 24.1453C70.7041 23.9076 71.1985 23.6009 71.6754 23.2276C72.1536 22.8543 72.57 22.4 72.9252 21.8685C73.2799 21.3352 73.5674 20.7205 73.7829 20.0239C73.9997 19.3274 74.1083 18.5425 74.1083 17.6704C74.1083 16.7977 74.0024 16.017 73.7914 15.3255C73.581 14.634 73.2948 14.0225 72.9338 13.4897Z" fill="white" fill-opacity="0.79"/>
<path id="Fill-3" fill-rule="evenodd" clip-rule="evenodd" d="M79.6111 0.642556C79.3447 0.755659 79.1144 0.91428 78.9197 1.11796C78.725 1.32256 78.5731 1.56026 78.4622 1.83198C78.35 2.1037 78.2946 2.3929 78.2946 2.69819V18.6393C78.2946 19.7837 78.4983 20.7492 78.9035 21.5363C79.3091 22.3249 79.813 22.9649 80.4196 23.4563C81.0249 23.9492 81.6829 24.3037 82.3928 24.5189C83.104 24.735 83.7598 24.8416 84.3588 24.8416H99.9842V20.4237H84.3921C83.8152 20.4237 83.3762 20.2701 83.077 19.9649C82.7764 19.6591 82.6272 19.2168 82.6272 18.6393V14.895L98.0359 14.8839V10.4306L82.6272 10.443V4.89083H99.9842V0.4729H80.4773C80.1668 0.4729 79.8774 0.529452 79.6111 0.642556Z" fill="white" fill-opacity="0.79"/>
<path id="Fill-5" fill-rule="evenodd" clip-rule="evenodd" d="M128.001 11.7986C127.89 11.5333 127.737 11.2983 127.542 11.0933C127.349 10.8896 127.118 10.7287 126.851 10.6091C126.585 10.491 126.296 10.4308 125.986 10.4308H112.309V14.8841H123.836V20.4234H110.359C109.804 20.4234 109.374 20.2675 109.068 19.9558C108.763 19.6441 108.61 19.2055 108.61 18.6395V6.70891C108.61 6.10937 108.76 5.65558 109.06 5.34983C109.359 5.04409 109.793 4.89098 110.359 4.89098L127.721 4.87765V0.459717L110.359 0.47259C109.616 0.47259 108.949 0.569602 108.36 0.761786C107.772 0.954429 107.253 1.2119 106.803 1.53512C106.353 1.85696 105.967 2.22937 105.645 2.64776C105.323 3.06661 105.061 3.50523 104.862 3.96408C104.662 4.42339 104.514 4.88822 104.42 5.35857C104.326 5.82891 104.279 6.26753 104.279 6.67489V18.6395C104.279 19.3976 104.372 20.0804 104.562 20.6864C104.751 21.2937 105.004 21.8257 105.32 22.2845C105.637 22.7434 106.001 23.1342 106.411 23.456C106.821 23.7793 107.253 24.0436 107.702 24.2468C108.153 24.4505 108.607 24.6018 109.068 24.6974C109.529 24.794 109.96 24.8418 110.359 24.8418H125.986C126.296 24.8418 126.585 24.7852 126.851 24.6721C127.118 24.559 127.349 24.4032 127.542 24.2045C127.737 24.0068 127.89 23.7719 128.001 23.4988C128.112 23.2275 128.167 22.9333 128.167 22.6151V12.6574C128.167 12.3517 128.112 12.0652 128.001 11.7986Z" fill="white" fill-opacity="0.79"/>
<path id="Fill-7" fill-rule="evenodd" clip-rule="evenodd" d="M64.0062 38.3129H61.9897C61.9541 38.3129 61.8802 38.3065 61.7667 38.2964C61.6535 38.2867 61.5228 38.26 61.3736 38.2173C61.2258 38.1759 61.069 38.1115 60.904 38.0237C60.739 37.9368 60.5885 37.8173 60.4492 37.6642C60.3113 37.5106 60.1977 37.3207 60.1076 37.0922C60.0179 36.8646 59.9733 36.5856 59.9733 36.2559V33.0283H58.8258V36.2559C58.8258 36.6329 58.8704 36.9764 58.9579 37.2844C59.0467 37.5911 59.1688 37.8642 59.3225 38.1028C59.4766 38.3419 59.6569 38.5479 59.8624 38.7217C60.0684 38.8964 60.2888 39.0398 60.5218 39.1515C60.7562 39.2646 60.9977 39.3479 61.2479 39.4017C61.498 39.4559 61.7459 39.4821 61.9897 39.4821H64.5745C64.6543 39.4821 64.7296 39.4669 64.7999 39.4371C64.8702 39.4081 64.9319 39.3667 64.9847 39.3138C65.0379 39.261 65.0798 39.1994 65.1095 39.1263C65.1375 39.0545 65.1523 38.9768 65.1523 38.8927V33.0283H64.0062V38.3129Z" fill="white" fill-opacity="0.79"/>
<g id="Group-11">
<path id="Fill-9" fill-rule="evenodd" clip-rule="evenodd" d="M81.1644 33.7012C80.9291 33.4626 80.6506 33.2764 80.3274 33.1417C80.0056 33.006 79.6545 32.938 79.2764 32.938H77.7232C77.3437 32.938 76.9922 33.006 76.6681 33.1417C76.3441 33.2764 76.0656 33.4626 75.8303 33.7012C75.5946 33.9403 75.4098 34.2253 75.2768 34.5564C75.1425 34.8883 75.0758 35.2488 75.0758 35.6387V36.8722C75.0758 37.2658 75.1425 37.6267 75.2768 37.9573C75.4098 38.2865 75.5946 38.572 75.8303 38.812C76.0656 39.0525 76.3441 39.2382 76.6681 39.3729C76.9922 39.5063 77.3437 39.5729 77.7232 39.5729H79.2764C79.6545 39.5729 80.0056 39.5063 80.3274 39.3729C80.6506 39.2382 80.9291 39.0525 81.1644 38.812C81.3996 38.572 81.5835 38.2865 81.7151 37.9573C81.8485 37.6267 81.9139 37.2658 81.9139 36.8722V35.6387C81.9139 35.2488 81.8485 34.8883 81.7151 34.5564C81.5835 34.2253 81.3996 33.9403 81.1644 33.7012ZM80.7673 36.8722C80.7673 37.1035 80.7303 37.3122 80.6591 37.4994C80.5861 37.6883 80.4843 37.8479 80.3522 37.9812C80.2201 38.1155 80.0615 38.2189 79.8776 38.2916C79.6942 38.366 79.4905 38.4024 79.2665 38.4024H77.7232C77.4988 38.4024 77.2955 38.366 77.1121 38.2916C76.9282 38.2189 76.7691 38.1155 76.6375 37.9812C76.5054 37.8479 76.4031 37.6883 76.3306 37.4994C76.2589 37.3122 76.2219 37.1035 76.2219 36.8722V35.6387C76.2219 35.4088 76.2589 35.1987 76.3306 35.0116C76.4031 34.824 76.5054 34.663 76.6375 34.5297C76.7691 34.3964 76.9282 34.292 77.1121 34.2194C77.2955 34.1449 77.4988 34.1086 77.7232 34.1086H79.2764C79.4968 34.1086 79.6991 34.1449 79.8826 34.2194C80.0665 34.292 80.2242 34.3964 80.3545 34.5297C80.4852 34.663 80.5861 34.824 80.6591 35.0116C80.7303 35.1987 80.7673 35.4088 80.7673 35.6387V36.8722Z" fill="white" fill-opacity="0.79"/>
</g>
<path id="Fill-12" fill-rule="evenodd" clip-rule="evenodd" d="M56.348 33.1994C56.2948 33.1451 56.2335 33.1037 56.1632 33.0734C56.0915 33.0435 56.0176 33.0283 55.9374 33.0283H53.3517C52.8956 33.0283 52.4755 33.1074 52.0911 33.2674C51.7053 33.4256 51.3708 33.6481 51.0887 33.9336C50.8066 34.2177 50.5862 34.5584 50.4271 34.9548C50.268 35.3506 50.1891 35.7842 50.1891 36.2559V39.4821H51.3366V37.8977H55.3681V39.4821H56.5156V33.6182C56.5156 33.5373 56.5007 33.461 56.471 33.3879C56.4417 33.3161 56.4011 33.2531 56.348 33.1994ZM55.3681 36.7285H51.3366V36.2559C51.3366 35.929 51.3807 35.6499 51.4709 35.421C51.5597 35.1911 51.6742 34.9998 51.8125 34.8463C51.9504 34.6941 52.1019 34.5736 52.2673 34.4867C52.4309 34.3998 52.5886 34.3345 52.7365 34.2931C52.8857 34.2518 53.0164 34.2251 53.1299 34.2141C53.2422 34.204 53.3174 34.1989 53.3517 34.1989H55.3681V36.7285Z" fill="white" fill-opacity="0.79"/>
</g>
<path id="Fill-15" fill-rule="evenodd" clip-rule="evenodd" d="M67.1344 33.0283V34.1984H69.6674V39.4817H70.8135V34.1984H73.341V33.0283H67.1344Z" fill="white" fill-opacity="0.79"/>
<path id="Fill-16" fill-rule="evenodd" clip-rule="evenodd" d="M102.31 33.0283V34.1984H104.843V39.4817H105.989V34.1984H108.519V33.0283H102.31Z" fill="white" fill-opacity="0.79"/>
<g id="Group-24">
<g id="Group-19">
<g id="Mask group">
<mask id="mask0_375_5366" style="mask-type:luminance" maskUnits="userSpaceOnUse" x="84" y="32" width="8" height="8">
<g id="Group_3">
<path id="Vector" d="M91.5145 39.5725H84.15V32.9365H91.5145V39.5725Z" fill="white" fill-opacity="0.79"/>
</g>
</mask>
<g mask="url(#mask0_375_5366)">
<path id="Fill-17" fill-rule="evenodd" clip-rule="evenodd" d="M91.0904 32.9565C90.9611 32.9238 90.8367 32.9312 90.7181 32.979C90.5987 33.0268 90.505 33.1073 90.4373 33.2218L87.8255 37.8526L85.2137 33.2218C85.1817 33.1652 85.1411 33.116 85.0942 33.076C85.0474 33.0346 84.9955 33.0029 84.9379 32.9804C84.8811 32.9588 84.8207 32.945 84.7589 32.9404C84.6976 32.9362 84.6359 32.9413 84.5741 32.9565C84.447 32.9919 84.3447 33.0636 84.2672 33.1675C84.1897 33.2733 84.15 33.3928 84.15 33.5275V39.482H85.2975V35.6383L87.3401 39.2884C87.3906 39.3813 87.4582 39.4516 87.5456 39.5008C87.6322 39.5487 87.7259 39.5726 87.8255 39.5726C87.9292 39.5726 88.0252 39.5487 88.1153 39.5008C88.2041 39.4516 88.274 39.3813 88.3249 39.2884L90.3585 35.6383V39.482H91.5145V33.5275C91.5145 33.3928 91.474 33.2733 91.3951 33.1675C91.3162 33.0636 91.2135 32.9919 91.0904 32.9565Z" fill="white" fill-opacity="0.79"/>
</g>
</g>
</g>
<path id="Fill-20" fill-rule="evenodd" clip-rule="evenodd" d="M128.117 34.1987V33.0281H122.95C122.868 33.0281 122.792 33.0432 122.722 33.0731C122.651 33.1035 122.589 33.1449 122.538 33.1991C122.487 33.2534 122.447 33.3159 122.417 33.3876C122.388 33.4607 122.373 33.5375 122.373 33.618V37.84C122.373 38.1426 122.427 38.3982 122.534 38.6069C122.641 38.8157 122.776 38.9853 122.936 39.1159C123.096 39.2455 123.27 39.3398 123.458 39.3964C123.646 39.4543 123.819 39.4819 123.979 39.4819H128.117V38.3127H123.987C123.834 38.3127 123.718 38.2708 123.64 38.1904C123.559 38.109 123.52 37.9918 123.52 37.84V36.8451H127.601V35.6658H123.52V34.1987H128.117Z" fill="white" fill-opacity="0.79"/>
<path id="Fill-22" fill-rule="evenodd" clip-rule="evenodd" d="M117.052 37.6777L114.829 33.0281H113.545L116.536 39.2529C116.586 39.3485 116.657 39.4267 116.75 39.4846C116.843 39.5435 116.943 39.5724 117.052 39.5724C117.163 39.5724 117.266 39.5435 117.359 39.4846C117.452 39.4267 117.521 39.3485 117.569 39.2529L120.564 33.0281H119.284L117.052 37.6777Z" fill="white" fill-opacity="0.79"/>
</g>
<path id="Fill-25" fill-rule="evenodd" clip-rule="evenodd" d="M110.509 39.4821H111.657V33.0288H110.509V39.4821Z" fill="white" fill-opacity="0.79"/>
<g id="Group-28">
<path id="Fill-26" fill-rule="evenodd" clip-rule="evenodd" d="M99.8323 33.7012C99.5971 33.4626 99.3185 33.2764 98.9954 33.1417C98.6736 33.006 98.3225 32.938 97.9443 32.938H96.3899C96.0117 32.938 95.6593 33.006 95.3361 33.1417C95.0121 33.2764 94.7335 33.4626 94.4978 33.7012C94.2625 33.9403 94.0777 34.2253 93.9448 34.5564C93.8105 34.8883 93.7438 35.2488 93.7438 35.6387V36.8722C93.7438 37.2658 93.8105 37.6267 93.9448 37.9573C94.0777 38.2865 94.2625 38.572 94.4978 38.812C94.7335 39.0525 95.0121 39.2382 95.3361 39.3729C95.6593 39.5063 96.0117 39.5729 96.3899 39.5729H97.9443C98.3225 39.5729 98.6736 39.5063 98.9954 39.3729C99.3185 39.2382 99.5971 39.0525 99.8323 38.812C100.068 38.572 100.251 38.2865 100.383 37.9573C100.515 37.6267 100.582 37.2658 100.582 36.8722V35.6387C100.582 35.2488 100.515 34.8883 100.383 34.5564C100.251 34.2253 100.068 33.9403 99.8323 33.7012ZM99.4344 36.8722C99.4344 37.1035 99.3983 37.3122 99.3271 37.4994C99.2545 37.6883 99.1522 37.8479 99.0202 37.9812C98.8881 38.1155 98.729 38.2189 98.5456 38.2916C98.3617 38.366 98.1584 38.4024 97.9344 38.4024H96.3899C96.1668 38.4024 95.9635 38.366 95.7801 38.2916C95.5962 38.2189 95.4371 38.1155 95.3055 37.9812C95.1721 37.8479 95.0711 37.6883 94.9985 37.4994C94.9269 37.3122 94.8899 37.1035 94.8899 36.8722V35.6387C94.8899 35.4088 94.9269 35.1987 94.9985 35.0116C95.0711 34.824 95.1721 34.663 95.3055 34.5297C95.4371 34.3964 95.5962 34.292 95.7801 34.2194C95.9635 34.1449 96.1668 34.1086 96.3899 34.1086H97.9443C98.1634 34.1086 98.3671 34.1449 98.5505 34.2194C98.734 34.292 98.8917 34.3964 99.0224 34.5297C99.1531 34.663 99.2545 34.824 99.3271 35.0116C99.3983 35.1987 99.4344 35.4088 99.4344 35.6387V36.8722Z" fill="white" fill-opacity="0.79"/>
</g>
<g id="Bildmarke">
<path id="Fill-29" fill-rule="evenodd" clip-rule="evenodd" d="M2.40695 20.0161C2.40695 10.2988 10.1289 2.4216 19.6545 2.4216C22.2424 2.4216 24.6952 3.00735 26.8987 4.04919L28.0133 2.42482C19.6924 -1.70254 9.43297 0.825278 3.95647 8.80321C-1.52004 16.7816 -0.339194 27.4809 6.30869 34.046L7.42419 32.4207C4.32379 29.2395 2.40695 24.8565 2.40695 20.0161Z" fill="white" fill-opacity="0.7"/>
<path id="Fill-32" fill-rule="evenodd" clip-rule="evenodd" d="M34.1075 7.17847L32.9703 8.83502C35.4258 11.8746 36.9009 15.7697 36.9009 20.0162C36.9009 29.733 29.179 37.6102 19.6534 37.6102C17.6383 37.6102 15.7057 37.2543 13.9078 36.6065L12.7711 38.2626C20.7982 41.4203 30.1953 38.7417 35.3519 31.2295C40.5084 23.7173 39.7615 13.7927 34.1075 7.17847Z" fill="white" fill-opacity="0.79"/>
</g>
</g>
</g>
</g>
</g>
</g>
</g>
<defs>
<clipPath id="clip0_375_5366">
<rect width="128" height="40" fill="white" transform="translate(0.489868)"/>
</clipPath>
</defs>
</svg>
