<svg width="25" height="26" viewBox="0 0 25 26" fill="none" xmlns="http://www.w3.org/2000/svg">
<g id="Phone">
<path id="Vector" d="M20.616 22.75C18.5327 22.75 16.4743 22.2582 14.441 21.2745C12.4077 20.2908 10.5577 18.8959 8.89102 17.0896C7.22435 15.2833 5.93702 13.2791 5.02902 11.0771C4.12102 8.87503 3.66668 6.64517 3.66602 4.3875C3.66602 4.0625 3.76602 3.79167 3.96602 3.575C4.16602 3.35833 4.41602 3.25 4.71602 3.25H8.76602C8.99935 3.25 9.20768 3.33594 9.39102 3.50783C9.57435 3.67972 9.68268 3.88267 9.71602 4.11667L10.366 7.90833C10.3993 8.19722 10.391 8.44097 10.341 8.63958C10.291 8.8382 10.1993 9.00972 10.066 9.15417L7.64102 11.8083C7.97435 12.4764 8.37002 13.1217 8.82802 13.7443C9.28602 14.3668 9.79035 14.9673 10.341 15.5458C10.8577 16.1056 11.3993 16.6248 11.966 17.1037C12.5327 17.5825 13.1327 18.0202 13.766 18.4167L16.116 15.8708C16.266 15.7083 16.462 15.5866 16.704 15.5058C16.946 15.4249 17.1833 15.4021 17.416 15.4375L20.866 16.1958C21.0993 16.2681 21.291 16.3991 21.441 16.5891C21.591 16.779 21.666 16.991 21.666 17.225V21.6125C21.666 21.9375 21.566 22.2083 21.366 22.425C21.166 22.6417 20.916 22.75 20.616 22.75ZM6.69102 9.75L8.34102 7.9625L7.91602 5.41667H5.69102C5.77435 6.15694 5.89102 6.8882 6.04102 7.61042C6.19102 8.33264 6.40768 9.04583 6.69102 9.75ZM15.641 19.4458C16.291 19.7528 16.9537 19.9965 17.629 20.1771C18.3043 20.3576 18.9833 20.475 19.666 20.5292V18.1458L17.316 17.6313L15.641 19.4458Z" fill="#FFBF00"/>
</g>
</svg>
