<svg width="24" height="26" viewBox="0 0 24 26" fill="none" xmlns="http://www.w3.org/2000/svg">
<g id="Address">
<path id="Vector" d="M12 14.6249C12.663 14.6249 13.2989 14.3396 13.7678 13.8317C14.2366 13.3238 14.5 12.6349 14.5 11.9166C14.5 11.1983 14.2366 10.5094 13.7678 10.0015C13.2989 9.49359 12.663 9.20825 12 9.20825C11.337 9.20825 10.7011 9.49359 10.2322 10.0015C9.76339 10.5094 9.5 11.1983 9.5 11.9166C9.5 12.6349 9.76339 13.3238 10.2322 13.8317C10.7011 14.3396 11.337 14.6249 12 14.6249Z" fill="#FFBF00"/>
<path id="Vector_2" d="M19.0707 3.71481H19.0717C22.9767 7.94522 22.9767 14.8049 19.0717 19.0353L13.6687 24.8886C13.2262 25.3675 12.6263 25.6366 12.0007 25.6366C11.3752 25.6366 10.7752 25.3675 10.3327 24.8886L4.95773 19.0656L4.92973 19.0353C1.02473 14.8049 1.02473 7.94522 4.92973 3.71481C8.83473 -0.515612 15.1657 -0.515612 19.0707 3.71481ZM5.98973 4.86314C4.39592 6.59 3.50054 8.93307 3.50054 11.3751C3.50054 13.817 4.39592 16.159 5.98973 17.8859L6.01273 17.9119L6.01473 17.9141L11.3927 23.7402C11.5539 23.9142 11.7722 24.0119 11.9997 24.0119C12.2273 24.0119 12.4455 23.9142 12.6067 23.7402L18.0097 17.8859C19.5847 16.1548 20.4641 13.8193 20.456 11.3887C20.448 8.95815 19.5532 6.62958 17.9667 4.91081C16.3803 3.19203 14.2309 2.22246 11.9873 2.21353C9.74366 2.20461 7.58777 3.15703 5.98973 4.86314Z" fill="#FFBF00"/>
</g>
</svg>
