<svg width="21" height="16" viewBox="0 0 21 16" fill="none" xmlns="http://www.w3.org/2000/svg">
<path id="Vector" d="M2.33301 16C1.78301 16 1.31234 15.8043 0.921008 15.413C0.529675 15.0217 0.333674 14.5507 0.333008 14V2C0.333008 1.45 0.529008 0.979333 0.921008 0.588C1.31301 0.196666 1.78367 0.000666667 2.33301 0H18.333C18.883 0 19.354 0.196 19.746 0.588C20.138 0.98 20.3337 1.45067 20.333 2V14C20.333 14.55 20.1373 15.021 19.746 15.413C19.3547 15.805 18.8837 16.0007 18.333 16H2.33301ZM10.333 9L2.33301 4V14H18.333V4L10.333 9ZM10.333 7L18.333 2H2.33301L10.333 7ZM2.33301 4V2V14V4Z" fill="#FFBF00"/>
</svg>
