<svg width="64" height="60" viewBox="0 0 64 60" fill="none" xmlns="http://www.w3.org/2000/svg">
<g id="COLLABORATIVE" clip-path="url(#clip0_33_321)">
<g id="Clip path group">
<mask id="mask0_33_321" style="mask-type:luminance" maskUnits="userSpaceOnUse" x="2" y="0" width="60" height="60">
<g id="2de8cc9417">
<path id="Vector" d="M2.04395 0.308594H61.7593V59.945H2.04395V0.308594Z" fill="white"/>
</g>
</mask>
<g mask="url(#mask0_33_321)">
<g id="Group">
<path id="Vector_2" d="M31.9016 59.945C15.4063 59.945 2.04395 46.5094 2.04395 30.1268C2.04395 13.7461 15.4063 0.308594 31.9016 0.308594C48.397 0.308594 61.7593 13.6533 61.7593 30.1268C61.7593 46.6003 48.304 59.945 31.9016 59.945ZM31.9016 2.1495C16.419 2.1495 3.88729 14.6665 3.88729 30.1268C3.88729 45.5889 16.419 58.104 31.9016 58.104C47.3824 58.104 59.916 45.5889 59.916 30.1268C59.916 14.6665 47.2913 2.1495 31.9016 2.1495Z" fill="#FFBF00"/>
</g>
</g>
</g>
<g id="Clip path group_2">
<mask id="mask1_33_321" style="mask-type:luminance" maskUnits="userSpaceOnUse" x="0" y="20" width="64" height="33">
<g id="6c5cb3f224">
<path id="Vector_3" d="M0.928711 20.3635H63.0716V52.3635H0.928711V20.3635Z" fill="white"/>
</g>
</mask>
<g mask="url(#mask1_33_321)">
<g id="Group_2">
<g id="Clip path group_3">
<mask id="mask2_33_321" style="mask-type:luminance" maskUnits="userSpaceOnUse" x="0" y="17" width="64" height="37">
<g id="a66fd2cdfd">
<path id="Vector_4" d="M0.230469 20.8692L61.6754 17.5208L63.4809 50.5624L2.03779 53.9109L0.230469 20.8692Z" fill="white"/>
</g>
</mask>
<g mask="url(#mask2_33_321)">
<g id="Group_3">
<g id="Clip path group_4">
<mask id="mask3_33_321" style="mask-type:luminance" maskUnits="userSpaceOnUse" x="0" y="17" width="64" height="37">
<g id="d752972cd8">
<path id="Vector_5" d="M0.230469 20.8692L61.6754 17.5208L63.4809 50.5624L2.03779 53.9109L0.230469 20.8692Z" fill="white"/>
</g>
</mask>
<g mask="url(#mask3_33_321)">
<g id="Group_4">
<path id="Vector_6" fill-rule="evenodd" clip-rule="evenodd" d="M28.8304 49.7234C29.1869 49.123 29.716 48.1268 30.9089 48.642C32.115 49.3503 31.2521 51.3333 30.6908 51.7518C30.1408 52.3617 29.1622 52.2215 28.7412 51.6647C28.1287 51.1174 28.2804 50.3333 28.8304 49.7234ZM6.23985 20.5605L12.9779 22.9033L13.0633 24.4469L17.8101 25.9318C18.6066 26.2746 18.6369 26.8541 18.2918 27.6477L14.3149 40.2537C13.9698 41.0473 13.7972 41.4431 12.409 40.9374L7.67167 39.6477L1.09668 36.7158L6.23985 20.5605ZM46.5603 25.5246L55.0602 20.9962L62.8052 38.1912L55.7922 41.4772C53.9052 42.5492 51.601 43.0605 49.4163 42.2121C49.4049 42.0189 49.7729 41.6117 49.5263 40.6571C48.7431 37.0227 46.4256 30.1799 44.3812 28.3541L46.8485 27.2518L46.5603 25.5246ZM19.6496 27.5738L15.834 39.5908C16.6514 40.32 17.2658 40.8674 18.0718 41.4033C21.7907 38.2973 23.5203 41.4943 23.4008 42.856C25.1247 42.3749 26.5432 43.4583 26.6172 44.8105C28.7071 43.9223 30.5372 45.3712 30.448 47.3124C32.2041 47.409 33.0632 48.9109 32.7712 50.6704C34.9654 51.7121 35.925 51.4658 36.0539 50.2973C38.8114 50.9223 40.1256 50.0757 39.6534 48.553C42.0315 49.3901 44.3054 48.2992 43.0367 46.4318C45.1796 46.5094 46.5053 45.856 46.6134 44.3011L46.4313 44.5056L40.3304 39.6098C37.3492 38.4166 34.1328 36.464 33.177 33.2234L31.4342 33.32C28.7223 40.6306 21.3299 36.9677 25.3618 32.4886C25.9117 31.8787 24.1803 28.6818 27.4137 27.3427C25.0773 27.2765 22.1681 27.4355 19.6496 27.5738ZM26.1886 33.4109C26.75 32.9943 26.7082 32.2215 26.5812 29.9052C26.7537 29.5094 27.1103 28.909 27.8632 28.481L33.0025 26.4583C33.7668 26.2234 34.349 26.1912 35.3276 26.3314C37.5123 27.1799 39.5036 28.0397 41.8628 28.4924C42.8413 28.6325 43.4444 28.9867 44.0892 30.1136C45.8093 33.1174 47.3549 36.517 48.1154 39.767C48.6198 41.8693 48.2102 41.5037 46.346 42.9602C44.5273 41.7045 42.6877 40.0624 41.0435 38.409C37.0818 37.0776 34.6183 34.695 34.0835 32.0132L30.5941 32.2026C30.0972 33.7783 29.386 34.9791 28.0813 36.0189C27.3265 36.4469 26.1639 36.5094 25.7335 35.7594C25.1114 35.0189 25.4357 33.839 26.1886 33.4109ZM18.7166 42.5302C19.46 41.909 20.5599 40.6874 21.7869 41.7821C23.012 42.8768 21.5366 44.3124 20.9866 44.9242C20.2319 45.3522 19.2628 45.4052 18.6388 44.6647C18.2197 44.106 18.1666 43.142 18.7166 42.5302ZM21.7831 45.267C22.5266 44.6458 24.0039 43.2102 25.0356 44.3162C26.0577 45.2272 24.8061 47.2329 24.0627 47.8541C23.5127 48.464 22.3388 48.3352 21.7149 47.5946C21.0909 46.8541 21.2332 45.8787 21.7831 45.267ZM25.4092 47.5871C26.1526 46.9658 27.4042 44.9602 28.6293 46.0549C30.0498 47.1401 28.2178 49.1761 27.4744 49.7973C26.9244 50.4071 25.944 50.267 25.3314 49.7196C24.9009 48.9696 24.8592 48.1969 25.4092 47.5871Z" fill="#121212"/>
</g>
</g>
</g>
</g>
</g>
</g>
</g>
</g>
</g>
<g id="Clip path group_5">
<mask id="mask4_33_321" style="mask-type:luminance" maskUnits="userSpaceOnUse" x="3" y="20" width="57" height="30">
<g id="526fed05d1">
<path id="Vector_7" d="M3.35645 20.8486H59.6734V49.9395H3.35645V20.8486Z" fill="white"/>
</g>
</mask>
<g mask="url(#mask4_33_321)">
<g id="Group_5">
<g id="Clip path group_6">
<mask id="mask5_33_321" style="mask-type:luminance" maskUnits="userSpaceOnUse" x="2" y="18" width="59" height="34">
<g id="05dcfe4a30">
<path id="Vector_8" d="M2.63965 21.305L58.6304 18.252L60.2765 48.3902L4.28577 51.4413L2.63965 21.305Z" fill="white"/>
</g>
</mask>
<g mask="url(#mask5_33_321)">
<g id="Group_6">
<g id="Clip path group_7">
<mask id="mask6_33_321" style="mask-type:luminance" maskUnits="userSpaceOnUse" x="2" y="18" width="59" height="34">
<g id="593c988e81">
<path id="Vector_9" d="M2.63965 21.305L58.6304 18.252L60.2765 48.3902L4.28577 51.4413L2.63965 21.305Z" fill="white"/>
</g>
</mask>
<g mask="url(#mask6_33_321)">
<g id="Group_7">
<path id="Vector_10" fill-rule="evenodd" clip-rule="evenodd" d="M28.7027 47.6233C29.027 47.0759 29.5087 46.1668 30.5972 46.6365C31.6953 47.2824 30.9083 49.0911 30.3981 49.4718C29.8956 50.0305 29.0042 49.9017 28.6211 49.3922C28.0636 48.8941 28.2001 48.1801 28.7027 47.6233ZM8.11484 21.021L14.2555 23.1593L14.3333 24.5683L18.6591 25.9206C19.3835 26.235 19.412 26.7634 19.0972 27.4869L15.475 38.985C15.1601 39.7085 15.0027 40.0702 13.7378 39.61L9.42149 38.432L3.42871 35.7558L8.11484 21.021ZM44.8566 25.5532L52.6036 21.4225L59.6603 37.1062L53.2693 40.1024C51.5511 41.0797 49.4517 41.5475 47.4605 40.7729C47.451 40.5968 47.7848 40.2255 47.5591 39.3543C46.8479 36.038 44.7353 29.7975 42.873 28.1327L45.1203 27.1271L44.8566 25.5532ZM20.3337 27.4187L16.8594 38.379C17.6047 39.0456 18.1622 39.5456 18.898 40.0343C22.287 37.2009 23.863 40.1176 23.753 41.3581C25.3232 40.9206 26.6185 41.9093 26.6849 43.1422C28.5908 42.3316 30.2559 43.6536 30.1762 45.4225C31.7749 45.5134 32.5582 46.8827 32.2927 48.4869C34.2934 49.4377 35.1658 49.2123 35.2853 48.146C37.7962 48.7161 38.9947 47.9452 38.5642 46.5551C40.7319 47.3202 42.8028 46.324 41.6479 44.6214C43.5993 44.6915 44.8073 44.0968 44.9079 42.6782L44.7391 42.8638L39.1806 38.3998C36.4649 37.3108 33.5329 35.5286 32.6625 32.574L31.0733 32.6611C28.6022 39.3297 21.866 35.9869 25.5394 31.9036C26.0401 31.3449 24.4641 28.4301 27.4093 27.2104C25.2796 27.1498 22.6303 27.2937 20.3337 27.4187ZM26.2942 32.7445C26.8043 32.3638 26.7664 31.6593 26.6507 29.5475C26.8081 29.1858 27.1324 28.6384 27.8208 28.2464L32.5032 26.4017C33.1992 26.1877 33.7302 26.1593 34.6215 26.2861C36.6128 27.0608 38.4277 27.8449 40.5764 28.2577C41.4677 28.3865 42.0177 28.7085 42.6056 29.7369C44.172 32.4774 45.5811 35.5778 46.2752 38.5418C46.7341 40.4604 46.3624 40.1271 44.6632 41.4547C43.0057 40.3089 41.3293 38.8127 39.8311 37.3051C36.2202 36.0892 33.9767 33.9149 33.4874 31.4699L30.309 31.6422C29.8557 33.0797 29.2071 34.1744 28.0181 35.1233C27.3316 35.5134 26.2714 35.5702 25.8808 34.8865C25.3118 34.2104 25.6077 33.1346 26.2942 32.7445ZM19.4859 41.0627C20.163 40.4945 21.1662 39.3808 22.2832 40.379C23.4002 41.379 22.0537 42.6877 21.5531 43.2445C20.8666 43.6346 19.9828 43.6839 19.4158 43.0077C19.0327 42.4983 18.9853 41.6195 19.4859 41.0627ZM22.2794 43.5589C22.9564 42.9907 24.3029 41.682 25.2436 42.6896C26.1747 43.5229 25.035 45.3505 24.3579 45.9168C23.8554 46.4736 22.7858 46.3562 22.2187 45.6801C21.6498 45.0058 21.7788 44.1157 22.2794 43.5589ZM25.583 45.6744C26.262 45.1062 27.4017 43.2786 28.5187 44.2786C29.814 45.2672 28.1432 47.1233 27.4662 47.6896C26.9636 48.2464 26.0723 48.1195 25.5129 47.6195C25.1203 46.9358 25.0824 46.2312 25.583 45.6744Z" fill="#FFBF00"/>
</g>
</g>
</g>
</g>
</g>
</g>
</g>
</g>
</g>
</g>
<defs>
<clipPath id="clip0_33_321">
<rect width="62.1429" height="60" fill="white" transform="translate(0.928711)"/>
</clipPath>
</defs>
</svg>
