<svg width="33" height="33" viewBox="0 0 33 33" fill="none" xmlns="http://www.w3.org/2000/svg">
<g id="carbon:software-resource-cluster">
<path id="Vector" d="M24.49 21.5C23.99 21.5 23.49 21.3 23.09 20.9L20.09 17.9C19.69 17.5 19.49 17 19.49 16.5C19.49 16 19.69 15.5 20.09 15.1L23.09 12.1C23.49 11.7 23.99 11.5 24.49 11.5C24.99 11.5 25.49 11.7 25.89 12.1L28.89 15.1C29.29 15.5 29.49 16 29.49 16.5C29.49 17 29.29 17.5 28.89 17.9L25.89 20.9C25.49 21.3 24.99 21.5 24.49 21.5ZM24.49 13.5L21.49 16.5L24.49 19.5L27.49 16.5L24.49 13.5ZM16.49 13.5C15.99 13.5 15.49 13.3 15.09 12.9L12.09 9.9C11.69 9.5 11.49 9 11.49 8.5C11.49 8 11.69 7.5 12.09 7.1L15.09 4.1C15.49 3.7 15.99 3.5 16.49 3.5C16.99 3.5 17.49 3.7 17.89 4.1L20.89 7.1C21.29 7.5 21.49 8 21.49 8.5C21.49 9 21.29 9.5 20.89 9.9L17.89 12.9C17.49 13.3 16.99 13.5 16.49 13.5ZM16.49 5.5L13.49 8.5L16.49 11.5L19.49 8.5L16.49 5.5ZM16.49 29.5C15.99 29.5 15.49 29.3 15.09 28.9L12.09 25.9C11.69 25.5 11.49 25 11.49 24.5C11.49 24 11.69 23.5 12.09 23.1L15.09 20.1C15.49 19.7 15.99 19.5 16.49 19.5C16.99 19.5 17.49 19.7 17.89 20.1L20.89 23.1C21.29 23.5 21.49 24 21.49 24.5C21.49 25 21.29 25.5 20.89 25.9L17.89 28.9C17.49 29.3 16.99 29.5 16.49 29.5ZM16.49 21.5L13.49 24.5L16.49 27.5L19.49 24.5L16.49 21.5ZM8.48999 21.5C7.98999 21.5 7.48999 21.3 7.08999 20.9L4.08999 17.9C3.68999 17.5 3.48999 17 3.48999 16.5C3.48999 16 3.68999 15.5 4.08999 15.1L7.08999 12.1C7.48999 11.7 7.98999 11.5 8.48999 11.5C8.98999 11.5 9.48999 11.7 9.88999 12.1L12.89 15.1C13.29 15.5 13.49 16 13.49 16.5C13.49 17 13.29 17.5 12.89 17.9L9.88999 20.9C9.48999 21.3 8.98999 21.5 8.48999 21.5ZM8.48999 13.5L5.48999 16.5L8.48999 19.5L11.49 16.5L8.48999 13.5Z" fill="white"/>
</g>
</svg>
