<svg width="44" height="39" viewBox="0 0 44 39" fill="none" xmlns="http://www.w3.org/2000/svg">
<mask id="mask0_1059_2488" style="mask-type:luminance" maskUnits="userSpaceOnUse" x="4" y="0" width="37" height="9">
<path d="M4.00391 0H40.4961V8.94416H4.00391V0Z" fill="white"/>
</mask>
<g mask="url(#mask0_1059_2488)">
<path d="M22.2539 8.18613C16.8483 8.18613 12.4507 12.58 12.4507 17.98C12.4507 23.381 16.8483 27.7748 22.2539 27.7748C27.6595 27.7748 32.058 23.381 32.058 17.98C32.058 12.58 27.6595 8.18613 22.2539 8.18613ZM22.2539 28.8024C16.2809 28.8024 11.4222 23.9474 11.4222 17.98C11.4222 12.0135 16.2809 7.15849 22.2539 7.15849C28.2269 7.15849 33.0866 12.0135 33.0866 17.98C33.0866 23.9474 28.2269 28.8024 22.2539 28.8024ZM24.3269 32.4845L25.8074 34.8109C27.0036 34.5602 28.1682 34.1829 29.2769 33.6873L29.1055 30.936L29.3887 30.7785C30.4089 30.2093 31.363 29.517 32.222 28.7204L32.4596 28.5006L35.0245 29.5114C35.8481 28.6021 36.5711 27.6127 37.1776 26.5617L35.4214 24.4338L35.5574 24.1412C36.0521 23.0763 36.4164 21.9564 36.641 20.8132L36.7034 20.4955L39.3708 19.8061C39.4388 19.1772 39.4724 18.5772 39.4724 17.98C39.4724 17.3837 39.4388 16.7837 39.3708 16.1548L36.7034 15.4663L36.641 15.1486C36.4164 14.0036 36.0521 12.8837 35.5584 11.8206L35.4214 11.5262L37.1776 9.39919C36.5711 8.34825 35.8481 7.3588 35.0245 6.44948L32.4596 7.46035L32.222 7.24047C31.3639 6.44482 30.4108 5.75164 29.3887 5.18238L29.1064 5.02493L29.2769 2.27367C28.1682 1.77801 27.0036 1.40068 25.8083 1.15006L24.3269 3.47647L24.0055 3.43827C23.4055 3.36653 22.8157 3.33113 22.2539 3.33113C21.6847 3.33113 21.1117 3.3656 20.5023 3.43827L20.1809 3.47647L18.6995 1.15006C17.5042 1.40068 16.3405 1.77801 15.2309 2.27367L15.4023 5.02493L15.1191 5.18238C14.0979 5.75164 13.1448 6.44388 12.2858 7.24047L12.0482 7.46035L9.48332 6.44948C8.65971 7.3588 7.93765 8.34825 7.3302 9.39919L9.08642 11.5262L8.9504 11.8206C8.45567 12.8837 8.09138 14.0036 7.86685 15.1486L7.80442 15.4663L5.13701 16.1548C5.06993 16.7781 5.03639 17.3912 5.03639 17.98C5.03639 18.5698 5.06993 19.1828 5.13701 19.8061L7.80442 20.4946L7.86685 20.8123C8.09138 21.9574 8.45567 23.0772 8.9504 24.1403L9.08642 24.4338L7.3302 26.5617C7.93765 27.6127 8.65971 28.6021 9.48332 29.5114L12.0482 28.5006L12.2858 28.7204C13.1448 29.517 14.0979 30.2093 15.1191 30.7785L15.4023 30.936L15.2309 33.6873C16.3396 34.1829 17.5033 34.5602 18.6995 34.8109L20.1809 32.4845L20.5023 32.5227C21.721 32.6671 22.7859 32.6671 24.0055 32.5227L24.3269 32.4845ZM19.1915 35.9531L18.8495 35.8879C17.3328 35.6019 15.8616 35.1258 14.4762 34.4727L14.1613 34.3236L14.3355 31.5146C13.443 30.9919 12.6007 30.3807 11.8265 29.6922L9.2094 30.7245L8.96996 30.4701C7.90877 29.3447 6.99572 28.0944 6.25876 26.7546L6.09013 26.449L7.88269 24.2772C7.46529 23.3269 7.14386 22.3384 6.92398 21.3294L4.20067 20.626L4.15688 20.2803C4.05812 19.4949 4.00781 18.7216 4.00781 17.98C4.00781 17.2393 4.05812 16.4669 4.15688 15.6806L4.20067 15.3349L6.92398 14.6315C7.14386 13.6225 7.46529 12.634 7.88269 11.6837L6.09013 9.51192L6.25876 9.20633C6.99572 7.86657 7.90877 6.61625 8.96996 5.48984L9.2094 5.23642L11.8265 6.2678C12.6007 5.58021 13.442 4.96903 14.3355 4.44635L14.1613 1.63733L14.4762 1.48826C15.8626 0.835148 17.3337 0.359057 18.8495 0.0730304L19.1915 0.0078125L20.7036 2.38267C21.2356 2.32864 21.7452 2.30348 22.2539 2.30348C22.7542 2.30348 23.275 2.3305 23.8042 2.38267L25.3164 0.0078125L25.6592 0.0730304C27.1741 0.359057 28.6462 0.835148 30.0316 1.48826L30.3474 1.63733L30.1723 4.44635C31.0658 4.96996 31.9071 5.58021 32.6813 6.26873L35.2993 5.23642L35.5379 5.49077C36.6 6.61718 37.5121 7.8675 38.25 9.20633L38.4177 9.51192L36.6251 11.6837C37.0425 12.634 37.364 13.6225 37.5848 14.6315L40.3071 15.3349L40.3519 15.6815C40.4516 16.48 40.5009 17.2319 40.5009 17.98C40.5009 18.7281 40.4516 19.4809 40.3519 20.2803L40.3071 20.626L37.5848 21.3294C37.3649 22.3375 37.0425 23.3269 36.6242 24.2772L38.4168 26.449L38.2491 26.7546C37.5121 28.0944 36.6 29.3447 35.5379 30.4711L35.2993 30.7245L32.6804 29.6922C31.9062 30.3807 31.0648 30.9919 30.1723 31.5146L30.3474 34.3236L30.0316 34.4727C28.6462 35.1258 27.1741 35.6019 25.6583 35.8879L25.3154 35.9531L23.8042 33.5782C22.7393 33.6845 21.7676 33.6845 20.7036 33.5782L19.1915 35.9531Z" fill="#FFBF00"/>
</g>
<mask id="mask1_1059_2488" style="mask-type:luminance" maskUnits="userSpaceOnUse" x="4" y="29" width="37" height="10">
<path d="M4.4375 29.6289H40.0353V38.3942H4.4375V29.6289Z" fill="white"/>
</mask>
<g mask="url(#mask1_1059_2488)">
<path d="M22.2403 30.3728C16.967 30.3728 12.6775 26.0665 12.6775 20.7736C12.6775 15.4807 16.967 11.1745 22.2403 11.1745C27.5136 11.1745 31.804 15.4807 31.804 20.7736C31.804 26.0665 27.5136 30.3728 22.2403 30.3728ZM22.2403 10.1674C16.4135 10.1674 11.6741 14.9255 11.6741 20.7736C11.6741 26.6218 16.4135 31.3799 22.2403 31.3799C28.067 31.3799 32.8075 26.6218 32.8075 20.7736C32.8075 14.9255 28.067 10.1674 22.2403 10.1674ZM24.263 6.55987L25.7071 4.27911C26.8736 4.52507 28.0093 4.89402 29.091 5.38036L28.9242 8.07665L29.2 8.23131C30.1959 8.78939 31.1258 9.46766 31.9643 10.2475L32.1953 10.4636L34.6978 9.47231C35.501 10.3639 36.2062 11.3338 36.7979 12.3633L35.0854 14.4484L35.2177 14.7363C35.7003 15.7798 36.0562 16.8773 36.2742 17.9982L36.3357 18.3093L38.9379 18.9839C39.0041 19.6007 39.0367 20.1885 39.0367 20.7736C39.0367 21.3587 39.0041 21.9466 38.9379 22.5634L36.3357 23.2379L36.2742 23.5491C36.0562 24.6718 35.7003 25.7693 35.2177 26.811L35.0854 27.0988L36.7979 29.183C36.2062 30.2135 35.501 31.1833 34.6978 32.075L32.1953 31.0837L31.9643 31.2998C31.1267 32.0796 30.1969 32.7579 29.2 33.316L28.9251 33.4706L29.0919 36.1679C28.0093 36.6533 26.8736 37.0222 25.7071 37.2682L24.263 34.9883L23.949 35.0256C23.363 35.0955 22.7881 35.1309 22.2403 35.1309C21.685 35.1309 21.126 35.0964 20.5316 35.0256L20.2176 34.9883L18.7735 37.2682C17.607 37.0222 16.4713 36.6533 15.3896 36.1679L15.5564 33.4706L15.2806 33.316C14.2837 32.7579 13.3539 32.0796 12.5163 31.2998L12.2843 31.0837L9.78275 32.075C8.97964 31.1833 8.27435 30.2135 7.68273 29.184L9.39517 27.0988L9.26287 26.811C8.78026 25.7693 8.42529 24.6718 8.20634 23.5491L8.14485 23.2379L5.54266 22.5634C5.47744 21.9522 5.44483 21.3513 5.44483 20.7736C5.44483 20.196 5.47744 19.596 5.54266 18.9839L8.14485 18.3103L8.20634 17.9982C8.42529 16.8755 8.78026 15.7789 9.26287 14.7363L9.39517 14.4484L7.68273 12.3633C8.27435 11.3338 8.97964 10.3639 9.78275 9.47231L12.2843 10.4636L12.5163 10.2475C13.3539 9.46766 14.2846 8.78939 15.2806 8.23131L15.5564 8.07665L15.3896 5.38036C16.4713 4.89402 17.6061 4.52507 18.7735 4.27911L20.2176 6.55987L20.5316 6.52167C21.7204 6.38006 22.7583 6.38006 23.949 6.52167L24.263 6.55987ZM19.2533 3.16016L18.9188 3.22351C17.4403 3.50395 16.0045 3.97072 14.6527 4.61079L14.3452 4.75706L14.5157 7.51019C13.6446 8.02168 12.8238 8.62076 12.0682 9.29529L9.51536 8.28442L9.2815 8.53318C8.2464 9.63629 7.35665 10.8615 6.63645 12.1751L6.47248 12.4742L8.22125 14.6031C7.8141 15.5338 7.50012 16.5028 7.28584 17.4922L4.62961 18.1808L4.58675 18.5199C4.48985 19.2895 4.44141 20.0479 4.44141 20.7736C4.44141 21.4994 4.48985 22.2578 4.58675 23.0274L4.62961 23.3665L7.28584 24.056C7.50012 25.0445 7.8141 26.0134 8.22125 26.9451L6.47248 29.074L6.63645 29.3731C7.35665 30.6858 8.2464 31.911 9.2815 33.015L9.51536 33.2638L12.0682 32.252C12.8238 32.9265 13.6446 33.5256 14.5157 34.0371L14.3452 36.7911L14.6527 36.9365C16.0055 37.5766 17.4403 38.0443 18.9188 38.3238L19.2533 38.3871L20.7282 36.0598C21.2471 36.1129 21.7446 36.138 22.2403 36.138C22.7285 36.138 23.2363 36.111 23.7524 36.0598L25.2273 38.3871L25.5617 38.3238C27.0403 38.0443 28.4751 37.5766 29.8279 36.9365L30.1354 36.7902L29.9649 34.0371C30.836 33.5247 31.6568 32.9265 32.4115 32.252L34.9652 33.2638L35.1991 33.015C36.2342 31.911 37.1249 30.6849 37.8441 29.3731L38.0081 29.0731L36.2593 26.9451C36.6665 26.0134 36.9795 25.0445 37.1948 24.056L39.851 23.3665L39.8938 23.0274C39.9917 22.2438 40.0401 21.5069 40.0401 20.7736C40.0401 20.0413 39.9917 19.3034 39.8938 18.5199L39.851 18.1808L37.1948 17.4922C36.9805 16.5037 36.6665 15.5338 36.2584 14.6031L38.0072 12.4742L37.8432 12.1751C37.1239 10.8615 36.2342 9.63629 35.1982 8.53225L34.9652 8.28442L32.4115 9.29529C31.6559 8.62076 30.8351 8.02168 29.964 7.51019L30.1354 4.75706L29.827 4.61079C28.4751 3.97072 27.0403 3.50395 25.5617 3.22351L25.2273 3.16016L23.7524 5.4875C22.7136 5.38315 21.7651 5.38315 20.7282 5.4875L19.2533 3.16016Z" fill="white"/>
</g>
<path d="M5.02344 24.9412V14.1523H6.80854V24.9412H5.02344ZM8.58247 19.7015L12.3278 24.9412H10.293L7.41228 20.6965V18.5611L10.0322 14.1523H12.0372L8.58247 19.7015Z" fill="white"/>
<path d="M12.6914 19.4966C12.6914 18.6273 12.7958 17.8587 13.0045 17.1897C13.215 16.5217 13.5085 15.9562 13.884 15.4941C14.2613 15.0301 14.7057 14.6732 15.2181 14.4245C15.7296 14.1767 16.2886 14.0322 16.8952 13.9922V15.4568C16.5616 15.4969 16.2486 15.6003 15.956 15.7661C15.6625 15.9301 15.4091 16.1742 15.1958 16.4966C14.9815 16.8171 14.8119 17.227 14.6852 17.7264C14.5585 18.2239 14.4896 18.8137 14.4802 19.4966C14.4896 20.1897 14.5585 20.7823 14.6852 21.2742C14.8119 21.7662 14.9843 22.1789 15.2032 22.5115C15.4212 22.845 15.6775 23.0966 15.9709 23.268C16.2635 23.4376 16.5719 23.5364 16.8952 23.5662V25.0159C16.2989 24.9758 15.7417 24.8323 15.2256 24.5836C14.7085 24.3357 14.2613 23.9789 13.884 23.514C13.5085 23.05 13.215 22.4808 13.0045 21.8072C12.7958 21.1345 12.6914 20.364 12.6914 19.4966ZM17.4803 13.9922C18.0737 14.022 18.6262 14.1636 19.1387 14.417C19.6529 14.6705 20.0974 15.0301 20.4728 15.4941C20.8474 15.9562 21.1418 16.5217 21.3561 17.1897C21.5722 17.8587 21.6803 18.6273 21.6803 19.4966C21.6803 20.364 21.5722 21.1345 21.3561 21.8072C21.1418 22.4808 20.8474 23.05 20.4728 23.514C20.0974 23.9789 19.6548 24.3357 19.1461 24.5836C18.6393 24.8323 18.084 24.9758 17.4803 25.0159V23.5662C17.8101 23.527 18.1222 23.4227 18.4157 23.2531C18.7082 23.0817 18.9616 22.832 19.1759 22.5041C19.3921 22.1761 19.5635 21.7662 19.6902 21.2742C19.8169 20.7823 19.8849 20.1897 19.8952 19.4966C19.8849 18.8034 19.8169 18.2109 19.6902 17.7189C19.5635 17.2251 19.3893 16.8152 19.1685 16.4891C18.9495 16.1611 18.6933 15.9133 18.4008 15.7438C18.1073 15.5723 17.8008 15.4717 17.4803 15.4419V13.9922Z" fill="white"/>
<path d="M24.0976 24.9412H22.3125V14.1523H24.0976V24.9412Z" fill="white"/>
<path d="M24.6953 19.4966C24.6953 18.6273 24.7997 17.8587 25.0084 17.1897C25.2189 16.5217 25.5124 15.9562 25.8879 15.4941C26.2652 15.0301 26.7096 14.6732 27.222 14.4245C27.7335 14.1767 28.2925 14.0322 28.8991 13.9922V15.4568C28.5655 15.4969 28.2525 15.6003 27.9599 15.7661C27.6665 15.9301 27.413 16.1742 27.1997 16.4966C26.9854 16.8171 26.8158 17.227 26.6891 17.7264C26.5624 18.2239 26.4935 18.8137 26.4841 19.4966C26.4935 20.1897 26.5624 20.7823 26.6891 21.2742C26.8158 21.7662 26.9882 22.1789 27.2071 22.5115C27.4251 22.845 27.6814 23.0966 27.9748 23.268C28.2674 23.4376 28.5758 23.5364 28.8991 23.5662V25.0159C28.3028 24.9758 27.7456 24.8323 27.2295 24.5836C26.7124 24.3357 26.2652 23.9789 25.8879 23.514C25.5124 23.05 25.2189 22.4808 25.0084 21.8072C24.7997 21.1345 24.6953 20.364 24.6953 19.4966ZM29.4842 13.9922C30.0777 14.022 30.6301 14.1636 31.1426 14.417C31.6569 14.6705 32.1013 15.0301 32.4767 15.4941C32.8513 15.9562 33.1457 16.5217 33.36 17.1897C33.5761 17.8587 33.6842 18.6273 33.6842 19.4966C33.6842 20.364 33.5761 21.1345 33.36 21.8072C33.1457 22.4808 32.8513 23.05 32.4767 23.514C32.1013 23.9789 31.6587 24.3357 31.15 24.5836C30.6432 24.8323 30.0879 24.9758 29.4842 25.0159V23.5662C29.814 23.527 30.1261 23.4227 30.4196 23.2531C30.7121 23.0817 30.9655 22.832 31.1798 22.5041C31.396 22.1761 31.5674 21.7662 31.6941 21.2742C31.8208 20.7823 31.8888 20.1897 31.8991 19.4966C31.8888 18.8034 31.8208 18.2109 31.6941 17.7189C31.5674 17.2251 31.3932 16.8152 31.1724 16.4891C30.9534 16.1611 30.6972 15.9133 30.4047 15.7438C30.1112 15.5723 29.8047 15.4717 29.4842 15.4419V13.9922Z" fill="white"/>
<path d="M39.2493 15.8223C39.199 15.8027 39.1393 15.7692 39.0704 15.7217C39.0033 15.6723 38.9064 15.6266 38.7797 15.5838C38.653 15.539 38.4909 15.5018 38.2952 15.472C38.1014 15.4421 37.8527 15.4375 37.5499 15.4571V13.9775C37.9794 13.9878 38.4154 14.0353 38.858 14.1192C39.3024 14.2011 39.6611 14.3306 39.935 14.5067C39.8772 14.6334 39.8092 14.7732 39.73 14.9241C39.6527 15.0732 39.5791 15.2139 39.5101 15.3453C39.4431 15.4775 39.3844 15.5875 39.335 15.6769C39.2875 15.7645 39.2586 15.813 39.2493 15.8223ZM34.1995 16.9925C34.1995 16.563 34.2722 16.1782 34.4194 15.8372C34.5657 15.4943 34.7632 15.1943 35.012 14.9353C35.2598 14.6772 35.5523 14.4732 35.8877 14.3241C36.225 14.1732 36.5791 14.0726 36.9499 14.0223V15.5577C36.6387 15.6676 36.3806 15.8558 36.1747 16.1241C35.9707 16.3925 35.8691 16.6636 35.8691 16.9366C35.8691 17.3167 35.9707 17.6241 36.1747 17.8571C36.3806 18.0909 36.6387 18.2959 36.9499 18.472V20.1416C36.6294 19.985 36.307 19.8173 35.9846 19.6384C35.6613 19.4577 35.3679 19.2453 35.1051 19.0012C34.8415 18.7552 34.6244 18.472 34.453 18.1515C34.2834 17.8291 34.1995 17.4425 34.1995 16.9925ZM34.4343 22.9664C34.5703 23.0438 34.7436 23.1192 34.9523 23.1938C35.1629 23.2664 35.3809 23.3344 35.6045 23.3987C35.8281 23.4611 36.0517 23.5124 36.2753 23.5515C36.5008 23.5916 36.7114 23.6111 36.9051 23.6111H36.9499V25.0012H36.9201C36.6862 25.0012 36.4449 24.9882 36.1971 24.964C35.9483 24.9397 35.6977 24.8987 35.4443 24.841C35.1908 24.7813 34.9486 24.7012 34.7176 24.5987C34.4884 24.4944 34.2908 24.3705 34.125 24.2261L34.4343 22.9664ZM37.5499 18.7627C37.8722 18.9099 38.202 19.0664 38.5375 19.2322C38.8747 19.399 39.1803 19.6012 39.4542 19.8397C39.7272 20.0782 39.9508 20.3689 40.125 20.7117C40.3011 21.0527 40.3896 21.4776 40.3896 21.9863C40.3896 22.3366 40.3235 22.6785 40.1921 23.0111C40.0598 23.3419 39.8754 23.641 39.6368 23.9093C39.3983 24.1776 39.1021 24.4049 38.7499 24.5913C38.3996 24.7758 37.9989 24.8969 37.5499 24.9565V23.5515C38.3493 23.3559 38.7499 22.8239 38.7499 21.9565C38.7499 21.6136 38.6381 21.3304 38.4145 21.1068C38.1909 20.8832 37.902 20.6736 37.5499 20.477V18.7627Z" fill="white"/>
<path d="M6.07422 8.99805H43.9993" stroke="#FFBF00" stroke-width="0.715797"/>
<path d="M1.25 29.2716H38.9972" stroke="white" stroke-width="0.71617"/>
<path d="M43.6133 28.993V8.77831" stroke="#FFBF00" stroke-width="0.714496"/>
<path d="M1.25 29.6289L1.25 8.69864" stroke="white" stroke-width="0.714532"/>
<path d="M40.5156 29.2716H43.9144" stroke="#FFBF00" stroke-width="0.709434"/>
<path d="M1 8.98425H4.39878" stroke="white" stroke-width="0.709434"/>
</svg>
